<svg xmlns="http://www.w3.org/2000/svg" version="1.1" xmlns:xlink="http://www.w3.org/1999/xlink" xmlns:svgjs="http://svgjs.dev/svgjs" width="1500" height="1500" viewBox="0 0 1500 1500"><rect width="1500" height="1500" fill="#ffffff"></rect><g transform="matrix(0.6666666666666666,0,0,0.6666666666666666,249.39393939393938,671.5294820698732)"><svg viewBox="0 0 396 62" data-background-color="#ffffff" preserveAspectRatio="xMidYMid meet" height="234" width="1500" xmlns="http://www.w3.org/2000/svg" xmlns:xlink="http://www.w3.org/1999/xlink"><g id="tight-bounds" transform="matrix(1,0,0,1,0.2400000000000091,0.18700071581960742)"><svg viewBox="0 0 395.52 61.62599856836077" height="61.62599856836077" width="395.52"><g><svg viewBox="0 0 395.52 61.62599856836077" height="61.62599856836077" width="395.52"><g><svg viewBox="0 0 395.52 61.62599856836077" height="61.62599856836077" width="395.52"><g id="textblocktransform"><svg viewBox="0 0 395.52 61.62599856836077" height="61.62599856836077" width="395.52" id="textblock"><g><svg viewBox="0 0 395.52 61.62599856836077" height="61.62599856836077" width="395.52"><g transform="matrix(1,0,0,1,0,0)"><svg width="395.52" viewBox="3.15 -32.3 209.53 32.65" height="61.62599856836077" data-palette-color="#014b80"><path d="M10.95-32L7.95-9.95 6.95 0 3.15 0 4.6-9.65 7.15-32 10.95-32ZM25.5-14.95L25.8-14.6 25.5-12.2 13.2-10.5 12.9-10.85 13.2-13.25 25.5-14.95ZM41.8-32.3Q45.39-32.3 48.84-30.75L48.84-30.75 47.8-27.2 47.09-27Q44.5-29.2 41.3-29.2L41.3-29.2Q39.39-29.2 37.95-28.45 36.5-27.7 35.7-26.48 34.89-25.25 34.89-23.9L34.89-23.9Q34.89-22.05 36.2-20.83 37.5-19.6 40.2-17.9L40.2-17.9Q42.39-16.55 43.77-15.48 45.14-14.4 46.12-12.78 47.09-11.15 47.09-9L47.09-9Q47.09-6.45 45.67-4.3 44.25-2.15 41.75-0.9 39.25 0.35 36.14 0.35L36.14 0.35Q34.09 0.35 31.87-0.25 29.64-0.85 27.84-1.9L27.84-1.9 28.79-5.75 29.3-5.95Q30.75-4.35 32.7-3.55 34.64-2.75 36.55-2.75L36.55-2.75Q39.5-2.75 41.39-4.38 43.3-6 43.3-8.3L43.3-8.3Q43.3-10.25 42-11.55 40.7-12.85 38-14.5L38-14.5Q35.84-15.8 34.49-16.85 33.14-17.9 32.2-19.5 31.25-21.1 31.25-23.25L31.25-23.25Q31.25-25.75 32.62-27.83 33.99-29.9 36.42-31.1 38.84-32.3 41.8-32.3L41.8-32.3ZM73.29-32L73.49-31.65 72.79-28.75 67.59-29 64.44-29 61.89-9.95 60.84 0 57.09 0 58.54-9.65 60.69-29 57.64-29 52.19-28.75 51.94-29.1 52.64-32 73.29-32ZM100.84-32L98.69-15.75 98.24-12.1Q97.64-6.15 94.39-2.9 91.14 0.35 85.59 0.35L85.59 0.35Q80.84 0.35 78.14-2.1 75.44-4.55 75.44-9L75.44-9Q75.44-10.45 75.64-11.7L75.64-11.7 76.24-16.05 78.19-32 81.84-32 79.19-12.15Q79.04-10.95 79.04-9.9L79.04-9.9Q79.04-6.45 80.77-4.73 82.49-3 85.84-3L85.84-3Q89.74-3 92.02-5.18 94.29-7.35 94.79-11.7L94.79-11.7 97.09-32 100.84-32ZM119.74-32.25Q125.49-32.25 128.64-29 131.79-25.75 131.79-19.75L131.79-19.75Q131.79-13.55 129.86-9.05 127.94-4.55 124.19-2.13 120.44 0.3 115.14 0.3L115.14 0.3Q113.19 0.3 110.31 0.23 107.44 0.15 105.04 0L105.04 0 104.99 0 106.44-9.65 109.04-32 109.09-32 119.74-32.25ZM115.89-2.85Q121.59-2.85 124.71-7.03 127.84-11.2 127.84-19.05L127.84-19.05Q127.84-24.05 125.69-26.58 123.54-29.1 119.34-29.1L119.34-29.1Q118.09-29.1 116.09-29.05 114.09-29 112.39-28.9L112.39-28.9 109.79-9.95 109.09-3.15Q113.69-2.85 115.89-2.85L115.89-2.85ZM149.49-28.9L143.34-28.8 141.94-18 147.69-17.9 152.69-18.05 152.94-17.7 152.24-14.8 146.94-14.9 141.49-14.85 140.84-9.95 140.14-3.2 146.24-3.1 153.49-3.3 153.64-2.95 152.99 0 135.99 0 137.44-9.65 140.03-32 157.09-32 157.24-31.65 156.59-28.7 149.49-28.9ZM186.63-32.1L183.53-9.35 182.48 0 178.58 0 166.03-26 165.68-26 163.73-10.5 162.58 0 159.03 0 160.43-9.5 163.13-32 167.03-32 179.58-6 179.88-6 183.08-31.85 186.63-32.1ZM212.48-32L212.68-31.65 211.98-28.75 206.78-29 203.63-29 201.08-9.95 200.03 0 196.28 0 197.73-9.65 199.88-29 196.83-29 191.38-28.75 191.13-29.1 191.83-32 212.48-32Z" opacity="1" transform="matrix(1,0,0,1,0,0)" fill="#000000" class="wordmark-text-0" data-fill-palette-color="primary" id="text-0"></path></svg></g></svg></g></svg></g></svg></g></svg></g><defs></defs></svg><rect width="395.52" height="61.62599856836077" fill="none" stroke="none" visibility="hidden"></rect></g></svg></g></svg>